<svg width="128" height="128" viewBox="0 0 128 128" fill="none" xmlns="http://www.w3.org/2000/svg">
<circle cx="64" cy="64" r="64" fill="#282C34"/>
<path d="M74.5 21C72.8333 20.5 57 21 57 21C51 21.4 48.5 22.5 47 26C47 28.5 49.3082 37.2285 55 39C58.7705 40.1735 62.6667 37.5 65 37.5C67.4 37.5 71.2845 40.3377 75 39C77.6667 35.8333 82.8 28.7 82 25.5C80 23.1 76.1667 21.5 74.5 21Z" fill="#EEA93C"/>
<path d="M106.649 51.9268C106.249 50.2334 97.8988 36.7714 97.8988 36.7714C94.5524 31.7752 92.3498 30.1602 88.5687 30.6111C86.4036 31.8611 79.9986 38.2243 81.3104 44.0393C82.1794 47.8914 86.4427 49.9288 87.6094 51.9496C88.8094 54.028 88.2942 58.811 91.3104 61.3598C95.3861 62.0859 104.13 62.9648 106.502 60.672C107.58 57.7399 107.049 53.6202 106.649 51.9268Z" fill="#83A598"/>
<path d="M95.6907 94.9949C96.957 93.8015 104.441 79.8395 104.441 79.8395C107.094 74.4433 107.392 71.7282 105.111 68.6792C102.945 67.4292 94.2323 65.0639 89.8522 69.1074C86.9507 71.786 87.3179 76.4969 86.1513 78.5177C84.9513 80.5961 80.5515 82.5414 79.8522 86.4279C81.2613 90.3206 84.8723 98.3329 88.0436 99.2401C91.122 98.708 94.4243 96.1883 95.6907 94.9949Z" fill="#D3869B"/>
<path d="M54.5837 107.358C56.2503 107.858 72.0837 107.358 72.0837 107.358C78.0837 106.958 80.5837 105.858 82.0837 102.358C82.0837 99.8584 79.7755 91.1299 74.0837 89.3584C70.3131 88.1849 66.417 90.8584 64.0837 90.8584C61.6837 90.8584 57.7991 88.0207 54.0837 89.3584C51.417 92.5251 46.2837 99.6584 47.0837 102.858C49.0837 105.258 52.917 106.858 54.5837 107.358Z" fill="#8EC07C"/>
<path d="M21.9843 76.7469C22.3846 78.4402 30.7343 91.9023 30.7343 91.9023C34.0807 96.8985 36.2833 98.5135 40.0644 98.0626C42.2295 96.8126 48.6345 90.4493 47.3227 84.6344C46.4538 80.7822 42.1904 78.7448 41.0237 76.7241C39.8237 74.6456 40.3389 69.8627 37.3227 67.3138C33.247 66.5878 24.5027 65.7089 22.1314 68.0017C21.0529 70.9337 21.584 75.0535 21.9843 76.7469Z" fill="#E73A2A"/>
<path d="M31.9424 33.6788C30.6761 34.8721 23.1924 48.8342 23.1924 48.8342C20.5389 54.2304 20.2415 56.9454 22.5226 59.9945C24.6876 61.2445 33.4009 63.6098 37.7809 59.5663C40.6825 56.8876 40.3152 52.1767 41.4819 50.156C42.6819 48.0776 47.0816 46.1323 47.7809 42.2458C46.3718 38.353 42.7608 30.3408 39.5896 29.4336C36.5111 29.9656 33.2088 32.4854 31.9424 33.6788Z" fill="#9CA157"/>
</svg>
